<?xml version="1.0" encoding="UTF-8"?>
<svg id="Layer_2" xmlns="http://www.w3.org/2000/svg" version="1.1" viewBox="0 0 1000 1000">
  <!-- Generator: Adobe Illustrator 29.6.0, SVG Export Plug-In . SVG Version: 2.1.1 Build 207)  -->
  <defs>
    <style>
      .st0 {
        fill: #b9a87b;
      }

      .st1 {
        fill: #ffffff;
      }
    </style>
  </defs>
  <g id="Layer_1-2">
    <g>
      <g>
        <path class="st1" d="M184.94,526.49c-3.29-2.29-5.47-3.8-5.47-6.9,0-2.37,1.74-3.96,4.34-3.96,1.26,0,3.51.3,5.5,3.48h.35v-4.19c-.4-.14-2.28-.89-5.59-.89-4.91,0-8.08,2.67-8.08,6.79,0,3.71,2.35,6.01,6.67,8.93,3.65,2.4,5.38,4.1,5.38,7.25,0,2.84-2.11,4.91-5.03,4.91-3.82,0-6.12-2.59-7.43-7.35h-.44v6.99c1.31.83,3.92,2.05,7.86,2.05,5.2,0,8.69-3.2,8.69-7.95,0-4.24-3.12-6.51-6.74-9.14v-.03Z"/>
        <polygon class="st1" points="595.39 514.89 597.26 516.97 597.26 540.72 595.39 542.79 595.39 543.16 603.11 543.16 603.11 542.79 601.24 540.72 601.24 516.97 603.11 514.89 603.11 514.53 595.39 514.53 595.39 514.89"/>
        <path class="st1" d="M630.85,537.27l-.03.03c-2.51,3.12-5.53,4.71-8.96,4.71-6.38,0-11.19-5.75-11.19-13.38,0-6.43,3.74-12.94,10.88-12.94,3.65,0,6.56,1.48,8.66,4.4l.03.04h.35v-4.8h-.06c-2.02-.59-5.2-1.26-8.79-1.26-4.56,0-8.5,1.59-11.37,4.58-2.66,2.76-4.11,6.45-4.11,10.39,0,8.47,6.51,14.62,15.48,14.62,5.4,0,9.02-1.78,9.41-1.99l.05-.03v-4.34h-.35Z"/>
        <path class="st1" d="M544.53,514.53h-5.66v.37l1.87,2.06v15.96c0,4.96-3.24,8.17-8.26,8.17-5.63,0-8.73-2.89-8.73-8.13v-16.01l1.87-2.06v-.37h-7.72v.37l1.87,2.06v16.05c0,6.76,4.38,10.62,12.04,10.62,6.41,0,10.88-4.37,10.88-10.62v-16.05l1.87-2.06v-.37h-.03Z"/>
        <polygon class="st1" points="290.9 518.13 290.9 540.72 289.03 542.79 289.03 543.16 294.69 543.16 294.69 542.79 292.83 540.72 292.83 520.29 313.14 543.16 314.63 543.16 314.63 516.97 316.49 514.89 316.49 514.53 310.84 514.53 310.84 514.89 312.7 516.97 312.7 536.96 293.04 514.53 287.58 514.53 287.58 514.89 290.9 518.13"/>
        <polygon class="st1" points="591.15 536.11 587.45 541.52 577.69 541.52 577.69 516.97 579.56 514.89 579.56 514.53 571.83 514.53 571.83 514.89 573.69 516.97 573.69 540.72 571.83 542.79 571.83 543.16 591.53 543.16 591.53 536.11 591.15 536.11"/>
        <polygon class="st1" points="249.76 540.72 247.89 542.79 247.89 543.16 255.61 543.16 255.61 542.79 253.74 540.72 253.74 516.97 255.61 514.89 255.61 514.53 247.89 514.53 247.89 514.89 249.76 516.97 249.76 540.72"/>
        <polygon class="st1" points="211.61 514.53 211.61 514.89 213.47 516.97 206.59 527.52 199.7 516.97 201.57 514.89 201.57 514.53 192.7 514.53 192.7 514.89 195.07 516.98 203.58 529.66 203.58 540.72 201.71 542.79 201.71 543.16 209.44 543.16 209.44 542.79 207.58 540.72 207.57 528.97 215.42 516.99 217.85 514.89 217.85 514.53 211.61 514.53"/>
        <path class="st1" d="M505.45,514.53h-9.35v.37l1.87,2.06v23.76l-1.87,2.06v.37h7.72v-.37l-1.86-2.06v-24.7h1.93c4.65,0,7.44,2.62,7.44,7.01,0,1.44-.32,6.34-7.57,7.41v.54c6.78.09,11.65-2.76,11.65-8.47,0-4.94-3.82-7.99-9.98-7.99h0Z"/>
        <polygon class="st1" points="491.38 537.05 488.37 541.52 478.6 541.52 478.6 528.71 487.42 528.71 489.68 530.75 490.05 530.75 490.05 525.09 489.68 525.09 487.42 527.12 478.6 527.12 478.6 516.11 487.51 516.11 490.35 519.72 490.73 519.72 490.73 514.53 472.75 514.53 472.75 514.89 474.6 516.97 474.6 540.72 472.75 542.79 472.75 543.16 491.76 543.16 491.76 537.05 491.38 537.05"/>
        <path class="st1" d="M376.11,536.5l-4.13-6.97c.88-.46,1.64-1.07,2.26-1.78,2.11-2.44,2.66-5.83,1.38-8.65-1.33-2.9-4.25-4.58-8.04-4.58h-9.73v.37l1.87,2.06v23.76l-1.87,2.06v.37h7.72v-.37l-1.86-2.06v-10.15h4.05c.14,0,.26,0,.45-.03l4.6,7.92c3.13,5.53,6.37,5.23,9.23,4.67v-.39c-1.07-.34-2.81-1.04-5.9-6.27l-.03.03ZM367.53,529.11h-3.83v-13.1h2.67c4.37,0,6.07,3.48,6.07,6.59s-1.71,6.51-4.91,6.51h0Z"/>
        <polygon class="st1" points="283.29 540.74 274.09 514.53 269.58 514.53 261.12 540.75 259.27 542.79 259.27 543.16 264.84 543.16 264.84 542.79 262.97 540.72 270.76 516.42 275.38 529.57 266.47 529.57 266.82 531.16 275.93 531.16 279.3 540.72 277.43 542.79 277.43 543.16 285.15 543.16 285.15 542.79 283.29 540.74"/>
        <polygon class="st1" points="353.09 540.74 343.88 514.53 339.37 514.53 330.91 540.75 329.07 542.79 329.07 543.16 334.64 543.16 334.64 542.79 332.77 540.72 340.56 516.42 345.17 529.57 336.26 529.57 336.61 531.16 345.73 531.16 349.08 540.72 347.22 542.79 347.22 543.16 354.94 543.16 354.94 542.79 353.09 540.74"/>
        <polygon class="st1" points="407.35 540.74 398.13 514.53 393.63 514.53 385.16 540.75 383.33 542.79 383.33 543.16 388.89 543.16 388.89 542.79 387.03 540.72 394.82 516.42 399.43 529.57 390.53 529.57 390.87 531.16 399.99 531.16 403.34 540.72 401.48 542.79 401.48 543.16 409.21 543.16 409.21 542.79 407.35 540.74"/>
        <path class="st1" d="M239.29,536.5l-4.13-6.97c.88-.46,1.64-1.07,2.26-1.78,2.11-2.44,2.66-5.83,1.38-8.65-1.33-2.9-4.25-4.58-8.04-4.58h-9.73v.37l1.87,2.06v23.76l-1.87,2.06v.37h7.72v-.37l-1.86-2.06v-24.7h2.67c4.37,0,6.07,3.48,6.07,6.59s-1.71,6.51-4.91,6.51h-3.91l.84,1.46h3.27c.14,0,.26,0,.45-.03l4.6,7.92c3.13,5.53,6.37,5.23,9.23,4.67v-.39c-1.07-.34-2.81-1.04-5.9-6.27v.03Z"/>
        <path class="st1" d="M463.99,536.5l-4.13-6.97c.88-.46,1.64-1.07,2.26-1.78,2.11-2.44,2.66-5.83,1.38-8.65-1.33-2.9-4.25-4.58-8.04-4.58h-9.73v.37l1.87,2.06v23.76l-1.87,2.06v.37h7.72v-.37l-1.86-2.06v-24.7h2.67c4.37,0,6.07,3.48,6.07,6.59s-1.71,6.51-4.91,6.51h-3.91l.84,1.46h3.27c.14,0,.26,0,.45-.03l4.6,7.92c3.13,5.53,6.37,5.23,9.23,4.67v-.39c-1.07-.34-2.81-1.04-5.9-6.27v.03Z"/>
        <path class="st1" d="M424.84,527.65c3.16-1.22,5.27-4.69,4.76-7.92-.24-1.57-1.57-5.22-8.5-5.22h-9v.37l1.87,2.06v23.76l-1.87,2.06v.37h9.81c6.57,0,10.18-4.05,10.36-8.03.14-3.3-2.1-6.85-7.45-7.46h.01ZM420.37,516.02c1.87,0,3.3.54,4.27,1.61,1.03,1.16,1.25,2.62,1.25,3.65,0,2.95-1.83,6.24-4.27,6.24h-3.66v-11.51h2.41ZM422.06,541.7c-1.82,0-3.22-.43-4.09-.79v-13.24l.79,1.37h2.36c2.29,0,4.18.66,5.43,1.88,1.08,1.07,1.68,2.55,1.68,4.19,0,3.24-2.31,6.59-6.16,6.59h0Z"/>
        <path class="st1" d="M561.19,527.65c3.16-1.22,5.27-4.69,4.76-7.92-.24-1.57-1.57-5.22-8.5-5.22h-9v.37l1.87,2.06v23.76l-1.87,2.06v.37h9.81c6.57,0,10.18-4.05,10.36-8.03.14-3.3-2.1-6.85-7.45-7.46h.01ZM556.72,516.02c1.87,0,3.3.54,4.27,1.61,1.03,1.16,1.25,2.62,1.25,3.65,0,2.95-1.83,6.24-4.27,6.24h-3.66v-11.51h2.41ZM558.4,541.7c-1.82,0-3.22-.43-4.09-.79v-13.24l.79,1.37h2.36c2.29,0,4.18.66,5.43,1.88,1.08,1.07,1.68,2.55,1.68,4.19,0,3.24-2.31,6.59-6.16,6.59h0Z"/>
      </g>
      <g>
        <polygon class="st1" points="587.59 491.38 587.59 491.7 590.18 494.29 590.5 494.29 593.09 491.7 593.09 491.38 590.5 488.78 590.18 488.78 587.59 491.38"/>
        <g>
          <polygon class="st1" points="489.61 488.78 487.02 491.38 487.02 491.7 489.61 494.29 489.93 494.29 492.52 491.7 492.52 491.38 489.93 488.78 489.61 488.78"/>
          <polygon class="st1" points="486.13 491.7 486.13 491.38 483.55 488.78 483.22 488.78 480.63 491.38 480.63 491.7 483.22 494.29 483.55 494.29 486.13 491.7"/>
        </g>
        <g>
          <polygon class="st1" points="472.49 462.76 475.07 460.16 475.07 459.84 472.49 457.25 472.16 457.25 469.56 459.84 469.56 460.16 472.16 462.76 472.49 462.76"/>
          <polygon class="st1" points="466.1 462.76 468.69 460.16 468.69 459.84 466.1 457.25 465.76 457.25 463.18 459.84 463.18 460.16 465.76 462.76 466.1 462.76"/>
        </g>
        <polygon class="st1" points="625.33 482.53 623.48 484.59 623.48 484.97 631.19 484.97 631.19 484.59 629.33 482.53 629.33 458.79 631.19 456.72 631.19 456.35 623.48 456.35 623.48 456.72 625.33 458.79 625.33 482.53"/>
        <path class="st1" d="M500.7,465.76h5.85v.37l-1.86,2.06v16.93c0,7.27-4.62,9.95-10.02,8.93l-.18-1.47c3.85.71,6.21-2.17,6.21-7.12v-19.71h-.01Z"/>
        <polygon class="st1" points="310.78 482.53 308.92 484.59 308.92 484.97 316.63 484.97 316.63 484.59 314.77 482.53 314.77 458.79 316.63 456.72 316.63 456.35 308.92 456.35 308.92 456.72 310.78 458.79 310.78 482.53"/>
        <g>
          <polygon class="st1" points="208.56 488.78 205.97 491.38 205.97 491.7 208.56 494.29 208.88 494.29 211.47 491.7 211.47 491.38 208.88 488.78 208.56 488.78"/>
          <polygon class="st1" points="205.09 491.7 205.09 491.38 202.5 488.78 202.16 488.78 199.59 491.38 199.59 491.7 202.16 494.29 202.5 494.29 205.09 491.7"/>
        </g>
        <g>
          <polygon class="st1" points="191.44 462.76 194.03 460.16 194.03 459.84 191.44 457.25 191.1 457.25 188.53 459.84 188.53 460.16 191.1 462.76 191.44 462.76"/>
          <polygon class="st1" points="185.04 462.76 187.64 460.16 187.64 459.84 185.04 457.25 184.72 457.25 182.13 459.84 182.13 460.16 184.72 462.76 185.04 462.76"/>
        </g>
        <path class="st1" d="M219.62,465.76h5.85v.37l-1.86,2.06v16.93c0,7.27-4.62,9.95-10.02,8.93l-.18-1.47c3.85.71,6.21-2.17,6.21-7.12v-19.71h-.01Z"/>
        <path class="st1" d="M212.58,466.13v-.37h-5.85v17.57h-10.48c-1.65,0-2.98-1.34-2.98-2.98v-12.16l1.86-2.06v-.37h-9.11c-14.25,0-14.25,17.51.98,17.51v-.58c-10.85-1.38-9.01-15.5,1.03-15.5h1.26v13.03c0,2.62,2.11,4.73,4.73,4.73h18.58v-.37l-1.86-2.06v-14.32l1.86-2.06h-.01Z"/>
        <g>
          <polygon class="st1" points="439.59 482.53 437.73 484.59 437.73 484.97 445.44 484.97 445.44 484.59 443.59 482.53 443.59 458.79 445.44 456.72 445.44 456.35 437.73 456.35 437.73 456.72 439.59 458.79 439.59 482.53"/>
          <polygon class="st1" points="375.74 488.78 373.16 491.38 373.16 491.7 375.74 494.29 376.07 494.29 378.66 491.7 378.66 491.38 376.07 488.78 375.74 488.78"/>
          <g>
            <polygon class="st1" points="363.81 494.29 366.4 491.7 366.4 491.38 363.81 488.78 363.48 488.78 360.9 491.38 360.9 491.7 363.48 494.29 363.81 494.29"/>
            <polygon class="st1" points="357.43 494.29 360.01 491.7 360.01 491.38 357.43 488.78 357.1 488.78 354.51 491.38 354.51 491.7 357.1 494.29 357.43 494.29"/>
          </g>
          <g>
            <polygon class="st1" points="343.68 462.76 346.26 460.16 346.26 459.84 343.68 457.25 343.34 457.25 340.75 459.84 340.75 460.16 343.34 462.76 343.68 462.76"/>
            <polygon class="st1" points="337.28 462.76 339.87 460.16 339.87 459.84 337.28 457.25 336.95 457.25 334.37 459.84 334.37 460.16 336.95 462.76 337.28 462.76"/>
          </g>
          <path class="st1" d="M434.24,456.72v-.37h-7.72v.37l1.86,2.06v24.56h-9.27c-1.96,0-3.7-.23-5.23-.7,5.89-3.42,7.74-9.39,8.21-13.05-2.8-1.41-6.67-2.27-10.95-2.27s-8.13.86-10.95,2.27c.46,3.66,2.32,9.64,8.21,13.05-1.56.48-3.34.7-5.34.7h-6.03c-2.58,0-4.98-1.61-6.21-4v-11.14l1.86-2.06v-.37h-5.85v19.71c0,4.95-2.36,7.83-6.21,7.12l.18,1.47c5.4,1.02,10.02-1.66,10.02-8.93v-1.93c1.51,1.12,3.07,1.78,5.63,1.78h8.57c2.28,0,4.32-.39,6.12-1.06,1.8.66,3.84,1.06,6.12,1.06h16.97v-.37l-1.86-2.06v-23.75l1.86-2.06h.01ZM404.81,470.47c4.36-1.73,8.34-1.73,12.7,0,0,4.22-2.02,8.59-6.34,11.01-4.32-2.42-6.34-6.79-6.34-11.01h-.01Z"/>
          <path class="st1" d="M379.77,466.13v-.37h-5.85v17.57h-5.25c-2.58,0-4.98-1.61-6.21-4v-11.14l1.86-2.06v-.37h-5.85v14.59c0,1.65-1.33,2.98-2.98,2.98h-7c-1.65,0-2.98-1.33-2.98-2.98v-12.16l1.86-2.06v-.37h-9.11c-14.25,0-14.25,17.51.98,17.51v-.58c-10.85-1.38-9.01-15.5,1.03-15.5h1.26v13.03c0,2.62,2.11,4.73,4.73,4.73h11.47c1.73,0,3.24-.93,4.06-2.31,1.75,1.43,3.36,2.31,6.3,2.31h11.69v-.37l-1.86-2.06v-14.32l1.86-2.06h-.01Z"/>
        </g>
        <path class="st1" d="M493.63,466.13v-.37h-5.85v17.57h-10.48c-1.65,0-2.98-1.34-2.98-2.98v-12.16l1.86-2.06v-.37h-9.11c-14.25,0-14.25,17.51.98,17.51v-.58c-10.85-1.38-9.01-15.5,1.03-15.5h1.26v13.03c0,2.62,2.11,4.73,4.73,4.73h18.58v-.37l-1.86-2.06v-14.32l1.86-2.06h-.01Z"/>
        <path class="st1" d="M619.75,456.72v-.37h-7.72v.37l1.86,2.06v24.56h-2.82c-15.78.24-11.36-25.98-30.9-16.01v1.43c12.94-4.69,11.65,9.62,21.19,14.58h-25c-.1-7.95-.98-16.01-8.73-16.01-8.13,0-8.71,11.43-8.71,11.86-.21,3.58-1.82,4.15-3.08,4.15h-10.11c2.66-1.64,4.24-4.13,5.41-6.83l-2.19-10.79-4.42-.83c-7.35,7.01-10.09,13.43-10.11,18.45h-7.35v-15.13l1.86-2.06v-.37h-7.43c-3.75,0-7.3,1.74-9.58,4.73-4.32,5.63-1.93,11.29-.76,14.48h11.05l.86-1.5v1.5c0,5.54-4.5,8.13-8.82,7.46l.21,1.55c1.66.17,5.89,1.2,9.55-2.09,1.96-1.77,3.07-4.28,3.06-6.92h7.44c.66,5.41,4.67,8.78,9.09,8.78h7.08l1.6-2.58c-.58-2.46-2.32-4.81-4.65-6.21h9.99c1.99,0,3.62-.85,4.55-2.45,1.82,1.52,3.44,2.45,6.47,2.45h2.6l.86-1.5v1.5h28.37l.93-1.6c1.92.99,4.29,1.6,7.3,1.6h11.04v-.37l-1.86-2.06v-23.75l1.86-2.06h.01ZM523.09,483.33h-7.99c-1.21-3.44-3.18-8.32.06-12.56,1.73-2.26,4.41-3.58,7.25-3.58h.68v16.14h0ZM545.42,466.33l1.87,10.95c-.19,2.04-1.65,4.55-4.23,6.07h-4.6c.22-6.02,4.34-13.77,6.96-17.02ZM547.89,492.2h-1.25c-4.95,0-7.1-2.87-7.89-5.74-.13-.48-.21-.98-.26-1.5h2.46c5.3,0,6.6,3,6.94,7.25h0ZM572.13,483.33h-2.87c-2.55,0-4.94-1.59-6.19-3.93v-.48c0-4.65.13-10.13,4.52-10.13s4.52,5.07,4.52,14.36v.18h.01Z"/>
        <path class="st1" d="M305.43,456.72v-.37h-7.72v.37l1.86,2.06v24.56h-13.14c.75-.86,1.16-1.96,1.16-3.11v-12.03l1.86-2.06v-.37h-5.85v14.59c0,1.65-1.33,2.98-2.98,2.98h-5.22c.75-.86,1.16-1.96,1.16-3.11v-12.84h-4v12.97c0,1.65-1.33,2.98-2.98,2.98h-6.29c.75-.86,1.16-1.96,1.16-3.11v-11.22h-4v11.33c0,1.65-1.33,2.98-2.98,2.98h-11.5v-15.13l1.86-2.06v-.37h-7.43c-3.75,0-7.3,1.74-9.58,4.73-4.32,5.63-1.93,11.29-.76,14.48h11.05l.86-1.5v1.5c0,5.54-4.5,8.13-8.82,7.46l.21,1.55c1.66.17,5.89,1.2,9.55-2.09,1.96-1.77,3.07-4.28,3.06-6.92h13.74c1.25,0,2.46-.5,3.35-1.38.06-.06.12-.13.18-.19l.92,1.59h7.67c1.25,0,2.46-.5,3.35-1.38.06-.06.12-.13.18-.19l.92,1.59h6.59c1.25,0,2.46-.5,3.35-1.38.06-.06.12-.13.18-.19l.92,1.57h18.11v-.37l-1.86-2.06v-23.75l1.86-2.06v-.03ZM242.01,483.33h-7.99c-1.21-3.44-3.18-8.32.06-12.56,1.73-2.26,4.41-3.58,7.25-3.58h.68s0,16.14,0,16.14Z"/>
      </g>
    </g>
    <g>
      <path class="st0" d="M796.48,487.71c-.41.4-.84.8-1.28,1.17l20.42,30.51-7.76-1.03c-2.51-.34-4.73-1.83-5.98-4.02l-12.18-21.28c-.49.31-.97.62-1.47.9l19.54,35.58-7.77-1.57c-2.54-.52-4.69-2.2-5.79-4.56l-12.2-26.39c-.53.22-1.07.43-1.62.62l12.78,28.95-5.93-1.2c-2.8-.57-5.09-2.54-6.06-5.23l-7.45-20.69c-.57.12-1.13.21-1.7.31l8.24,24.22-4.43-.89c-3.04-.62-5.47-2.9-6.27-5.9l-4.24-16.06h0c-.54.15-1.08.31-1.62.49l4.91,20.02-3.17-.64c-3.3-.67-5.84-3.29-6.42-6.6l-1.75-10.18-3.03,7.05c-.34.79-.26,1.69.22,2.4l9.36,14.12c.13.19.21.41.22.66l.18,2.67,5.89,5.9h13.87v6.06l-2.95-2.97h-3.25l3.09,3.09-3.36,3.38v-3.38l-3.09-3.09h-2.98l-3.09,3.09v2.67l-3.6-3.61,3.13-3.06-5.5-5.52-1.99.22c-.31.04-.63-.04-.89-.22l-11.58-7.71,8.32,11.25,13.24,17.91h-5.58c-3.17,0-6.05-1.84-7.39-4.72l-4.86-10.46c-.46.21-.93.41-1.39.59l7.8,19.67h-2.69c-3.93,0-7.31-2.81-8.01-6.69l-2.1-11.55c-.46.08-.92.15-1.39.21l1.75,13.79c.34,2.66-.64,5.3-2.63,7.09l-2.49,2.24-2.49-2.24c-1.99-1.79-2.97-4.43-2.63-7.09l1.75-13.79c-.46-.05-.93-.13-1.39-.21l-2.1,11.55c-.71,3.88-4.07,6.69-8.01,6.69h-2.69l7.8-19.67c-.46-.18-.93-.39-1.39-.59l-4.86,10.46c-1.34,2.87-4.22,4.72-7.39,4.72h-5.58l13.24-17.91,8.32-11.24-11.58,7.7c-.26.18-.58.24-.89.22l-1.99-.22-5.5,5.52,3.13,3.06-3.6,3.61v-2.67l-3.09-3.09h-2.98l-3.09,3.09v3.38l-3.36-3.38,3.09-3.09h-3.25l-2.95,2.97v-6.06h13.87l5.89-5.9.19-2.67c.01-.23.09-.45.22-.64l9.36-14.12c.48-.71.55-1.61.22-2.4l-3.04-7.05h0l-1.75,10.18c-.57,3.31-3.12,5.94-6.42,6.6l-3.17.63,4.91-20.03c-.53-.18-1.08-.34-1.62-.49l-4.24,16.06c-.8,3-3.22,5.3-6.27,5.9l-4.43.89,8.25-24.22c-.57-.09-1.13-.18-1.7-.3l-7.45,20.7c-.97,2.68-3.26,4.67-6.06,5.23l-5.93,1.2,12.76-28.97c-.54-.19-1.08-.4-1.61-.62l-12.2,26.39c-1.1,2.36-3.24,4.06-5.79,4.56l-7.77,1.57,19.56-35.58c-.5-.28-.99-.59-1.47-.9l-12.2,21.3c-1.26,2.2-3.47,3.69-5.98,4.02l-7.76,1.04,20.42-30.53c-.44-.37-.86-.77-1.28-1.17l-11.5,16.55c-1.42,2.04-3.67,3.31-6.15,3.48l-7.63.5,20.63-25.67c-.36-.45-.71-.92-1.04-1.39l-11.45,13.74c-1.55,1.86-3.84,2.93-6.25,2.93h-7.59l36.56-38.16c1.97-2.05,4.69-3.22,7.54-3.22h8.16c2.18,0,3.94,1.77,3.94,3.96v4.62c0,3.71,1.24,7.14,3.33,9.89,2.98,3.93,7.7,6.47,13.01,6.47,1.19,0,2.33-.13,3.44-.36.89-.19,1.6-.85,1.84-1.71l2.9-10.49c.04-.18.05-.39.01-.58-.19-1.28-1.92-2.06-3.84-1.77-1.55.23-2.75,1.1-3.07,2.08,0,0-.86-1.68-.88-2.91-.03-1.61.67-2.5,2.22-3.29l2.69-1.26c1.7-1.56,4.47-2.58,7.61-2.58,4.82,0,8.81,2.4,9.31,5.5l.05.37,1.95,14.72c.14,1.06.95,1.9,2,2.06.85.14,1.74.22,2.63.22,5.31,0,10.03-2.54,13.01-6.47,2.09-2.75,3.33-6.18,3.33-9.89v-4.62c0-2.18,1.77-3.96,3.94-3.96h8.16c2.85,0,5.57,1.16,7.54,3.22l36.56,38.16h-7.59c-2.41,0-4.71-1.07-6.25-2.93l-11.45-13.74c-.34.46-.68.93-1.04,1.39l20.63,25.67-7.63-.5c-2.48-.17-4.73-1.44-6.15-3.48l-11.5-16.55h0Z"/>
      <polygon class="st0" points="735.67 449.58 740.51 446.05 745.33 449.58 743.49 443.88 748.32 440.36 742.35 440.36 740.51 434.66 738.65 440.36 732.68 440.36 737.52 443.88 735.67 449.58"/>
      <polygon class="st0" points="759.82 449.72 762.91 454.84 763.42 448.87 769.23 447.49 763.73 445.18 764.23 439.22 760.32 443.75 754.81 441.43 757.91 446.55 754.01 451.09 759.82 449.72"/>
      <polygon class="st0" points="717.59 448.88 718.04 454.85 721.18 449.76 726.99 451.19 723.12 446.62 726.26 441.52 720.73 443.79 716.88 439.22 717.32 445.18 711.79 447.45 717.59 448.88"/>
    </g>
  </g>
</svg>